<svg xmlns="http://www.w3.org/2000/svg" version="1.1" xmlns:xlink="http://www.w3.org/1999/xlink" xmlns:svgjs="http://svgjs.dev/svgjs" width="200" height="" viewBox="0 0 2000 292"><g transform="matrix(1,0,0,1,-1.2121212121212466,-0.10648539136334989)"><svg viewBox="0 0 396 58" data-background-color="#e8e7d5" preserveAspectRatio="xMidYMid meet" height="292" width="2000" xmlns="http://www.w3.org/2000/svg" xmlns:xlink="http://www.w3.org/1999/xlink"><g id="tight-bounds" transform="matrix(1,0,0,1,0.2400000000000091,0.021151207873543854)"><svg viewBox="0 0 395.52 57.957697584252905" height="57.957697584252905" width="395.52"><g><svg viewBox="0 0 395.52 57.957697584252905" height="57.957697584252905" width="395.52"><g><svg viewBox="0 0 395.52 57.957697584252905" height="57.957697584252905" width="395.52"><g id="textblocktransform"><svg viewBox="0 0 395.52 57.957697584252905" height="57.957697584252905" width="395.52" id="textblock"><g><svg viewBox="0 0 395.52 57.957697584252905" height="57.957697584252905" width="395.52"><g transform="matrix(1,0,0,1,0,0)"><svg width="395.52" viewBox="3.49 -35.5 246.56 35.99" height="57.957697584252905" data-palette-color="#b2bbda"><g class="wordmark-text-0" data-fill-palette-color="primary" id="text-0"><path d="M20.04 0L3.49 0 3.49-35.01 6.64-35.01 6.64-3 20.04-3 20.04 0ZM44.24-8.11L44.24-8.11Q44.24-6.32 43.56-4.76 42.89-3.2 41.72-2.03 40.55-0.85 38.99-0.18 37.42 0.49 35.64 0.49L35.64 0.49 33.15 0.49Q31.37 0.49 29.79-0.18 28.22-0.85 27.05-2.03 25.88-3.2 25.21-4.76 24.53-6.32 24.53-8.11L24.53-8.11 24.53-26.9Q24.53-28.69 25.21-30.25 25.88-31.81 27.05-32.98 28.22-34.16 29.79-34.83 31.37-35.5 33.15-35.5L33.15-35.5 35.64-35.5Q37.42-35.5 38.99-34.83 40.55-34.16 41.72-32.98 42.89-31.81 43.56-30.25 44.24-28.69 44.24-26.9L44.24-26.9 44.24-8.11ZM41.09-8.11L41.09-26.9Q41.09-28.08 40.65-29.09 40.21-30.1 39.45-30.86 38.69-31.62 37.68-32.06 36.67-32.5 35.5-32.5L35.5-32.5 33.3-32.5Q32.13-32.5 31.11-32.06 30.1-31.62 29.33-30.86 28.56-30.1 28.12-29.09 27.68-28.08 27.68-26.9L27.68-26.9 27.68-8.11Q27.68-6.93 28.12-5.92 28.56-4.91 29.33-4.14 30.1-3.37 31.11-2.93 32.13-2.49 33.3-2.49L33.3-2.49 35.5-2.49Q36.67-2.49 37.68-2.93 38.69-3.37 39.45-4.14 40.21-4.91 40.65-5.92 41.09-6.93 41.09-8.11L41.09-8.11ZM70.94-18.41L70.94 0 69.94 0 68.11-2.81Q66.96-1.29 65.33-0.4 63.69 0.49 61.69 0.49L61.69 0.49 59.86 0.49Q58.08 0.49 56.5-0.18 54.93-0.85 53.75-2.03 52.58-3.2 51.91-4.76 51.24-6.32 51.24-8.11L51.24-8.11 51.24-26.9Q51.24-28.69 51.91-30.25 52.58-31.81 53.75-32.98 54.93-34.16 56.5-34.83 58.08-35.5 59.86-35.5L59.86-35.5 62.35-35.5Q64.13-35.5 65.69-34.83 67.26-34.16 68.43-32.98 69.6-31.81 70.27-30.25 70.94-28.69 70.94-26.9L70.94-26.9 70.94-25.49 67.79-25 67.79-26.9Q67.79-28.08 67.35-29.09 66.91-30.1 66.16-30.86 65.4-31.62 64.39-32.06 63.37-32.5 62.2-32.5L62.2-32.5 60-32.5Q58.83-32.5 57.82-32.06 56.81-31.62 56.04-30.86 55.27-30.1 54.83-29.09 54.39-28.08 54.39-26.9L54.39-26.9 54.39-8.11Q54.39-6.93 54.83-5.92 55.27-4.91 56.04-4.14 56.81-3.37 57.82-2.93 58.83-2.49 60-2.49L60-2.49 62.2-2.49Q63.37-2.49 64.39-2.93 65.4-3.37 66.16-4.14 66.91-4.91 67.35-5.92 67.79-6.93 67.79-8.11L67.79-8.11 67.79-15.41 62.2-15.41 62.2-18.41 70.94-18.41ZM97.65-8.11L97.65-8.11Q97.65-6.32 96.98-4.76 96.31-3.2 95.13-2.03 93.96-0.85 92.4-0.18 90.84 0.49 89.06 0.49L89.06 0.49 86.56 0.49Q84.78 0.49 83.21-0.18 81.63-0.85 80.46-2.03 79.29-3.2 78.62-4.76 77.95-6.32 77.95-8.11L77.95-8.11 77.95-26.9Q77.95-28.69 78.62-30.25 79.29-31.81 80.46-32.98 81.63-34.16 83.21-34.83 84.78-35.5 86.56-35.5L86.56-35.5 89.06-35.5Q90.84-35.5 92.4-34.83 93.96-34.16 95.13-32.98 96.31-31.81 96.98-30.25 97.65-28.69 97.65-26.9L97.65-26.9 97.65-8.11ZM94.5-8.11L94.5-26.9Q94.5-28.08 94.06-29.09 93.62-30.1 92.86-30.86 92.11-31.62 91.09-32.06 90.08-32.5 88.91-32.5L88.91-32.5 86.71-32.5Q85.54-32.5 84.53-32.06 83.51-31.62 82.74-30.86 81.97-30.1 81.54-29.09 81.1-28.08 81.1-26.9L81.1-26.9 81.1-8.11Q81.1-6.93 81.54-5.92 81.97-4.91 82.74-4.14 83.51-3.37 84.53-2.93 85.54-2.49 86.71-2.49L86.71-2.49 88.91-2.49Q90.08-2.49 91.09-2.93 92.11-3.37 92.86-4.14 93.62-4.91 94.06-5.92 94.5-6.93 94.5-8.11L94.5-8.11ZM124.87-8.59L124.87-8.59Q124.87-6.81 124.2-5.25 123.53-3.69 122.35-2.51 121.18-1.34 119.61-0.67 118.03 0 116.25 0L116.25 0 105.17 0 105.17-35.01 116.25-35.01Q118.03-35.01 119.61-34.34 121.18-33.67 122.35-32.5 123.53-31.32 124.2-29.75 124.87-28.17 124.87-26.39L124.87-26.39 124.87-26.05Q124.87-24.8 124.54-23.67 124.21-22.53 123.6-21.56 122.99-20.58 122.16-19.79 121.33-18.99 120.3-18.46L120.3-18.46Q121.33-17.92 122.16-17.13 122.99-16.33 123.6-15.34 124.21-14.36 124.54-13.22 124.87-12.08 124.87-10.84L124.87-10.84 124.87-8.59ZM121.72-8.59L121.72-11.35Q121.72-12.52 121.28-13.54 120.84-14.55 120.07-15.31 119.3-16.06 118.29-16.5 117.28-16.94 116.1-16.94L116.1-16.94 108.32-16.94 108.32-3 116.1-3Q117.28-3 118.29-3.44 119.3-3.88 120.07-4.64 120.84-5.4 121.28-6.41 121.72-7.42 121.72-8.59L121.72-8.59ZM121.72-25.56L121.72-26.39Q121.72-27.56 121.28-28.58 120.84-29.59 120.07-30.36 119.3-31.13 118.29-31.57 117.28-32.01 116.1-32.01L116.1-32.01 108.32-32.01 108.32-19.95 116.1-19.95Q117.28-19.95 118.29-20.39 119.3-20.83 120.07-21.59 120.84-22.36 121.28-23.38 121.72-24.39 121.72-25.56L121.72-25.56ZM146.33 0L144.01-8.15 132.92-8.15 130.63 0 127.36 0 137.61-35.01 139.27-35.01 149.57 0 146.33 0ZM138.37-27.29L133.78-11.16 143.18-11.16 138.56-27.29 138.46-28.59 138.37-27.29ZM175.06 0L171.15 0 157.97-17.5 171.15-35.01 175.06-35.01 161.61-17.5 175.06 0ZM157.21 0L154.06 0 154.06-35.01 157.21-35.01 157.21 0ZM199.76 0L180.06 0 180.06-35.01 199.76-35.01 199.76-32.01 183.21-32.01 183.21-18.99 196.61-18.99 196.61-15.99 183.21-15.99 183.21-3 199.76-3 199.76 0ZM225.86 0L222.22 0 212.72-14.94 208.4-14.94 208.4 0 205.25 0 205.25-35.01 216.36-35.01Q218.14-35.01 219.71-34.34 221.27-33.67 222.44-32.5 223.61-31.32 224.28-29.75 224.96-28.17 224.96-26.39L224.96-26.39 224.96-23.56Q224.96-21.78 224.28-20.2 223.61-18.63 222.44-17.46 221.27-16.28 219.71-15.61 218.14-14.94 216.36-14.94L216.36-14.94 225.86 0ZM221.81-23.56L221.81-26.39Q221.81-27.56 221.37-28.58 220.93-29.59 220.17-30.36 219.41-31.13 218.4-31.57 217.39-32.01 216.22-32.01L216.22-32.01 208.4-32.01 208.4-17.94 216.22-17.94Q217.39-17.94 218.4-18.38 219.41-18.82 220.17-19.59 220.93-20.36 221.37-21.37 221.81-22.39 221.81-23.56L221.81-23.56ZM250.05-35.01L241.07-16.75 241.07 0 237.92 0 237.92-16.7 228.86-35.01 232.25-35.01 239.46-20.46 246.66-35.01 250.05-35.01Z" fill="#ffffff" data-fill-palette-color="primary"></path></g></svg></g></svg></g></svg></g></svg></g></svg></g><defs></defs></svg><rect width="395.52" height="57.957697584252905" fill="none" stroke="none" visibility="hidden"></rect></g></svg></g></svg>